<mxfile host="app.diagrams.net" modified="2023-03-01T13:26:49.061Z" agent="5.0 (X11; Linux x86_64) AppleWebKit/537.36 (KHTML, like Gecko) Chrome/110.0.0.0 Safari/537.36" etag="S0qovZWtnd-B5uwVtE04" version="20.8.23" type="github" pages="2">
  <diagram name="第 1 页" id="JUju-SfDc5GeivV5sUrn">
    <mxGraphModel dx="908" dy="618" grid="1" gridSize="10" guides="1" tooltips="1" connect="1" arrows="1" fold="1" page="1" pageScale="1" pageWidth="827" pageHeight="1169" math="0" shadow="0">
      <root>
        <mxCell id="0" />
        <mxCell id="1" parent="0" />
        <mxCell id="3-Fe06T2kwL8zZiIl-PU-1" value="" style="whiteSpace=wrap;html=1;aspect=fixed;fillColor=#f8cecc;strokeColor=#b85450;" parent="1" vertex="1">
          <mxGeometry x="30" y="40" width="80" height="80" as="geometry" />
        </mxCell>
        <mxCell id="3-Fe06T2kwL8zZiIl-PU-5" style="edgeStyle=orthogonalEdgeStyle;rounded=0;orthogonalLoop=1;jettySize=auto;html=1;exitX=0.5;exitY=1;exitDx=0;exitDy=0;" parent="1" source="3-Fe06T2kwL8zZiIl-PU-2" target="3-Fe06T2kwL8zZiIl-PU-4" edge="1">
          <mxGeometry relative="1" as="geometry" />
        </mxCell>
        <mxCell id="3-Fe06T2kwL8zZiIl-PU-2" value="" style="whiteSpace=wrap;html=1;aspect=fixed;fillColor=#d5e8d4;strokeColor=#82b366;" parent="1" vertex="1">
          <mxGeometry x="50" y="20" width="80" height="80" as="geometry" />
        </mxCell>
        <mxCell id="3-Fe06T2kwL8zZiIl-PU-3" value="" style="whiteSpace=wrap;html=1;aspect=fixed;fillColor=#dae8fc;strokeColor=#6c8ebf;" parent="1" vertex="1">
          <mxGeometry x="70" width="80" height="80" as="geometry" />
        </mxCell>
        <mxCell id="3-Fe06T2kwL8zZiIl-PU-10" style="edgeStyle=orthogonalEdgeStyle;rounded=0;orthogonalLoop=1;jettySize=auto;html=1;exitX=0.5;exitY=1;exitDx=0;exitDy=0;entryX=0.5;entryY=0;entryDx=0;entryDy=0;fontFamily=Courier New;fontSize=16;" parent="1" source="3-Fe06T2kwL8zZiIl-PU-4" target="3-Fe06T2kwL8zZiIl-PU-9" edge="1">
          <mxGeometry relative="1" as="geometry" />
        </mxCell>
        <mxCell id="3-Fe06T2kwL8zZiIl-PU-4" value="&lt;font style=&quot;font-size: 16px;&quot;&gt;&lt;b&gt;ConvBNSiLU&lt;br&gt;(3, 32, (6, 2, 2))&lt;/b&gt;&lt;br&gt;&lt;/font&gt;" style="rounded=1;whiteSpace=wrap;html=1;fillColor=#dae8fc;strokeColor=#6c8ebf;" parent="1" vertex="1">
          <mxGeometry x="30" y="180" width="120" height="60" as="geometry" />
        </mxCell>
        <mxCell id="3-Fe06T2kwL8zZiIl-PU-6" value="&lt;span style=&quot;font-weight: normal;&quot;&gt;&lt;font face=&quot;Courier New&quot;&gt;3*640*640&lt;/font&gt;&lt;/span&gt;" style="text;strokeColor=none;fillColor=none;html=1;fontSize=24;fontStyle=1;verticalAlign=middle;align=center;" parent="1" vertex="1">
          <mxGeometry x="110" y="130" width="100" height="40" as="geometry" />
        </mxCell>
        <mxCell id="3-Fe06T2kwL8zZiIl-PU-20" style="edgeStyle=orthogonalEdgeStyle;rounded=0;orthogonalLoop=1;jettySize=auto;html=1;exitX=0.5;exitY=1;exitDx=0;exitDy=0;entryX=0.5;entryY=0;entryDx=0;entryDy=0;fontFamily=Helvetica;fontSize=16;" parent="1" source="3-Fe06T2kwL8zZiIl-PU-9" target="3-Fe06T2kwL8zZiIl-PU-15" edge="1">
          <mxGeometry relative="1" as="geometry" />
        </mxCell>
        <mxCell id="3-Fe06T2kwL8zZiIl-PU-9" value="&lt;font style=&quot;font-size: 16px;&quot;&gt;&lt;b&gt;ConvBNSiLU&lt;br&gt;(32, 64, (3, 2))&lt;/b&gt;&lt;br&gt;&lt;/font&gt;" style="rounded=1;whiteSpace=wrap;html=1;fillColor=#dae8fc;strokeColor=#6c8ebf;" parent="1" vertex="1">
          <mxGeometry x="30" y="280" width="120" height="60" as="geometry" />
        </mxCell>
        <mxCell id="3-Fe06T2kwL8zZiIl-PU-11" value="&lt;span style=&quot;font-weight: normal;&quot;&gt;&lt;font face=&quot;Courier New&quot;&gt;32*320*320&lt;/font&gt;&lt;/span&gt;" style="text;strokeColor=none;fillColor=none;html=1;fontSize=24;fontStyle=1;verticalAlign=middle;align=center;" parent="1" vertex="1">
          <mxGeometry x="120" y="240" width="100" height="40" as="geometry" />
        </mxCell>
        <mxCell id="3-Fe06T2kwL8zZiIl-PU-14" value="&lt;span style=&quot;font-weight: normal;&quot;&gt;&lt;font face=&quot;Courier New&quot;&gt;64*160*160&lt;/font&gt;&lt;/span&gt;" style="text;strokeColor=none;fillColor=none;html=1;fontSize=24;fontStyle=1;verticalAlign=middle;align=center;" parent="1" vertex="1">
          <mxGeometry x="120" y="340" width="100" height="40" as="geometry" />
        </mxCell>
        <mxCell id="3-Fe06T2kwL8zZiIl-PU-29" style="edgeStyle=orthogonalEdgeStyle;rounded=0;orthogonalLoop=1;jettySize=auto;html=1;exitX=0.5;exitY=1;exitDx=0;exitDy=0;entryX=0.5;entryY=0;entryDx=0;entryDy=0;fontFamily=Helvetica;fontSize=16;" parent="1" source="3-Fe06T2kwL8zZiIl-PU-15" target="3-Fe06T2kwL8zZiIl-PU-23" edge="1">
          <mxGeometry relative="1" as="geometry" />
        </mxCell>
        <mxCell id="3-Fe06T2kwL8zZiIl-PU-15" value="&lt;font face=&quot;Helvetica&quot; style=&quot;font-size: 16px;&quot;&gt;&lt;b&gt;C3&lt;br&gt;(64,64)&lt;/b&gt;&lt;/font&gt;" style="rounded=1;whiteSpace=wrap;html=1;fontFamily=Courier New;fontSize=16;fillColor=#ffe6cc;strokeColor=#d79b00;" parent="1" vertex="1">
          <mxGeometry x="30" y="380" width="120" height="60" as="geometry" />
        </mxCell>
        <mxCell id="3-Fe06T2kwL8zZiIl-PU-22" value="&lt;font face=&quot;Helvetica&quot; style=&quot;font-size: 16px;&quot;&gt;&lt;b&gt;C3&lt;br&gt;(64,64)&lt;/b&gt;&lt;/font&gt;" style="rounded=1;whiteSpace=wrap;html=1;fontFamily=Courier New;fontSize=16;fillColor=#ffe6cc;strokeColor=#d79b00;" parent="1" vertex="1">
          <mxGeometry x="440" y="470" width="120" height="60" as="geometry" />
        </mxCell>
        <mxCell id="3-Fe06T2kwL8zZiIl-PU-30" style="edgeStyle=orthogonalEdgeStyle;rounded=0;orthogonalLoop=1;jettySize=auto;html=1;exitX=0.5;exitY=1;exitDx=0;exitDy=0;entryX=0.5;entryY=0;entryDx=0;entryDy=0;fontFamily=Helvetica;fontSize=16;" parent="1" source="3-Fe06T2kwL8zZiIl-PU-23" target="3-Fe06T2kwL8zZiIl-PU-25" edge="1">
          <mxGeometry relative="1" as="geometry" />
        </mxCell>
        <mxCell id="3-Fe06T2kwL8zZiIl-PU-23" value="&lt;font style=&quot;font-size: 16px;&quot;&gt;&lt;b&gt;ConvBNSiLU&lt;br&gt;(64, 128, (3, 2))&lt;/b&gt;&lt;br&gt;&lt;/font&gt;" style="rounded=1;whiteSpace=wrap;html=1;fillColor=#dae8fc;strokeColor=#6c8ebf;" parent="1" vertex="1">
          <mxGeometry x="30" y="480" width="120" height="60" as="geometry" />
        </mxCell>
        <mxCell id="3-Fe06T2kwL8zZiIl-PU-33" value="" style="edgeStyle=orthogonalEdgeStyle;rounded=0;orthogonalLoop=1;jettySize=auto;html=1;fontFamily=Helvetica;fontSize=16;" parent="1" source="3-Fe06T2kwL8zZiIl-PU-24" target="3-Fe06T2kwL8zZiIl-PU-26" edge="1">
          <mxGeometry relative="1" as="geometry" />
        </mxCell>
        <mxCell id="3-Fe06T2kwL8zZiIl-PU-24" value="&lt;font style=&quot;font-size: 16px;&quot;&gt;&lt;b&gt;ConvBNSiLU&lt;br&gt;(128, 256, (3,2))&lt;/b&gt;&lt;br&gt;&lt;/font&gt;" style="rounded=1;whiteSpace=wrap;html=1;fillColor=#dae8fc;strokeColor=#6c8ebf;" parent="1" vertex="1">
          <mxGeometry x="30" y="680" width="120" height="60" as="geometry" />
        </mxCell>
        <mxCell id="3-Fe06T2kwL8zZiIl-PU-32" style="edgeStyle=orthogonalEdgeStyle;rounded=0;orthogonalLoop=1;jettySize=auto;html=1;exitX=0.5;exitY=1;exitDx=0;exitDy=0;entryX=0.5;entryY=0;entryDx=0;entryDy=0;fontFamily=Helvetica;fontSize=16;" parent="1" source="3-Fe06T2kwL8zZiIl-PU-25" target="3-Fe06T2kwL8zZiIl-PU-24" edge="1">
          <mxGeometry relative="1" as="geometry" />
        </mxCell>
        <mxCell id="3-Fe06T2kwL8zZiIl-PU-25" value="&lt;font face=&quot;Helvetica&quot; style=&quot;font-size: 16px;&quot;&gt;&lt;b&gt;C3*2&lt;br&gt;(128,128)&lt;/b&gt;&lt;/font&gt;" style="rounded=1;whiteSpace=wrap;html=1;fontFamily=Courier New;fontSize=16;fillColor=#ffe6cc;strokeColor=#d79b00;" parent="1" vertex="1">
          <mxGeometry x="30" y="580" width="120" height="60" as="geometry" />
        </mxCell>
        <mxCell id="3-Fe06T2kwL8zZiIl-PU-34" value="" style="edgeStyle=orthogonalEdgeStyle;rounded=0;orthogonalLoop=1;jettySize=auto;html=1;fontFamily=Helvetica;fontSize=16;" parent="1" source="3-Fe06T2kwL8zZiIl-PU-26" target="3-Fe06T2kwL8zZiIl-PU-27" edge="1">
          <mxGeometry relative="1" as="geometry" />
        </mxCell>
        <mxCell id="3-Fe06T2kwL8zZiIl-PU-26" value="&lt;font face=&quot;Helvetica&quot; style=&quot;font-size: 16px;&quot;&gt;&lt;b&gt;C3*3&lt;br&gt;(256, 256)&lt;/b&gt;&lt;/font&gt;" style="rounded=1;whiteSpace=wrap;html=1;fontFamily=Courier New;fontSize=16;fillColor=#ffe6cc;strokeColor=#d79b00;" parent="1" vertex="1">
          <mxGeometry x="30" y="780" width="120" height="60" as="geometry" />
        </mxCell>
        <mxCell id="3-Fe06T2kwL8zZiIl-PU-35" value="" style="edgeStyle=orthogonalEdgeStyle;rounded=0;orthogonalLoop=1;jettySize=auto;html=1;fontFamily=Helvetica;fontSize=16;" parent="1" source="3-Fe06T2kwL8zZiIl-PU-27" target="3-Fe06T2kwL8zZiIl-PU-28" edge="1">
          <mxGeometry relative="1" as="geometry" />
        </mxCell>
        <mxCell id="3-Fe06T2kwL8zZiIl-PU-27" value="&lt;font style=&quot;font-size: 16px;&quot;&gt;&lt;b&gt;ConvBNSiLU&lt;br&gt;(256, 512, (3,2))&lt;/b&gt;&lt;br&gt;&lt;/font&gt;" style="rounded=1;whiteSpace=wrap;html=1;fillColor=#dae8fc;strokeColor=#6c8ebf;" parent="1" vertex="1">
          <mxGeometry x="30" y="880" width="120" height="60" as="geometry" />
        </mxCell>
        <mxCell id="gwOte5Hnuhn8S0Q1IBPA-8" style="edgeStyle=orthogonalEdgeStyle;rounded=0;orthogonalLoop=1;jettySize=auto;html=1;exitX=0.5;exitY=1;exitDx=0;exitDy=0;entryX=0.5;entryY=0;entryDx=0;entryDy=0;fontFamily=Helvetica;fontSize=16;" parent="1" source="3-Fe06T2kwL8zZiIl-PU-28" target="gwOte5Hnuhn8S0Q1IBPA-7" edge="1">
          <mxGeometry relative="1" as="geometry" />
        </mxCell>
        <mxCell id="3-Fe06T2kwL8zZiIl-PU-28" value="&lt;font face=&quot;Helvetica&quot; style=&quot;font-size: 16px;&quot;&gt;&lt;b&gt;C3*3&lt;br&gt;(512, 512)&lt;/b&gt;&lt;/font&gt;" style="rounded=1;whiteSpace=wrap;html=1;fontFamily=Courier New;fontSize=16;fillColor=#ffe6cc;strokeColor=#d79b00;" parent="1" vertex="1">
          <mxGeometry x="30" y="980" width="120" height="60" as="geometry" />
        </mxCell>
        <mxCell id="gwOte5Hnuhn8S0Q1IBPA-1" value="&lt;span style=&quot;font-weight: normal;&quot;&gt;&lt;font face=&quot;Courier New&quot;&gt;64*160*160&lt;/font&gt;&lt;/span&gt;" style="text;strokeColor=none;fillColor=none;html=1;fontSize=24;fontStyle=1;verticalAlign=middle;align=center;" parent="1" vertex="1">
          <mxGeometry x="120" y="440" width="100" height="40" as="geometry" />
        </mxCell>
        <mxCell id="gwOte5Hnuhn8S0Q1IBPA-2" value="&lt;span style=&quot;font-weight: normal;&quot;&gt;&lt;font face=&quot;Courier New&quot;&gt;128*80*80&lt;/font&gt;&lt;/span&gt;" style="text;strokeColor=none;fillColor=none;html=1;fontSize=24;fontStyle=1;verticalAlign=middle;align=center;" parent="1" vertex="1">
          <mxGeometry x="120" y="540" width="100" height="40" as="geometry" />
        </mxCell>
        <mxCell id="gwOte5Hnuhn8S0Q1IBPA-3" value="&lt;span style=&quot;font-weight: normal;&quot;&gt;&lt;font face=&quot;Courier New&quot;&gt;128*80*80&lt;/font&gt;&lt;/span&gt;" style="text;strokeColor=none;fillColor=none;html=1;fontSize=24;fontStyle=1;verticalAlign=middle;align=center;" parent="1" vertex="1">
          <mxGeometry x="120" y="640" width="100" height="40" as="geometry" />
        </mxCell>
        <mxCell id="gwOte5Hnuhn8S0Q1IBPA-5" value="&lt;span style=&quot;font-weight: normal;&quot;&gt;&lt;font face=&quot;Courier New&quot;&gt;256*40*40&lt;/font&gt;&lt;/span&gt;" style="text;strokeColor=none;fillColor=none;html=1;fontSize=24;fontStyle=1;verticalAlign=middle;align=center;" parent="1" vertex="1">
          <mxGeometry x="120" y="820" width="100" height="40" as="geometry" />
        </mxCell>
        <mxCell id="cU7MSdv4xx69I2tBe95h-2" style="edgeStyle=orthogonalEdgeStyle;rounded=0;orthogonalLoop=1;jettySize=auto;html=1;exitX=1;exitY=0.5;exitDx=0;exitDy=0;entryX=0;entryY=0.5;entryDx=0;entryDy=0;" edge="1" parent="1" source="gwOte5Hnuhn8S0Q1IBPA-7" target="cU7MSdv4xx69I2tBe95h-1">
          <mxGeometry relative="1" as="geometry" />
        </mxCell>
        <mxCell id="gwOte5Hnuhn8S0Q1IBPA-7" value="&lt;b&gt;SPPF&lt;br&gt;(512, 512)&lt;/b&gt;" style="rounded=1;whiteSpace=wrap;html=1;fontFamily=Helvetica;fontSize=16;fillColor=#f8cecc;strokeColor=#b85450;" parent="1" vertex="1">
          <mxGeometry x="30" y="1080" width="120" height="60" as="geometry" />
        </mxCell>
        <mxCell id="gwOte5Hnuhn8S0Q1IBPA-9" value="&lt;span style=&quot;font-weight: normal;&quot;&gt;&lt;font face=&quot;Courier New&quot;&gt;512*20*20&lt;/font&gt;&lt;/span&gt;" style="text;strokeColor=none;fillColor=none;html=1;fontSize=24;fontStyle=1;verticalAlign=middle;align=center;" parent="1" vertex="1">
          <mxGeometry x="130" y="1040" width="100" height="40" as="geometry" />
        </mxCell>
        <mxCell id="cU7MSdv4xx69I2tBe95h-8" style="edgeStyle=orthogonalEdgeStyle;rounded=0;orthogonalLoop=1;jettySize=auto;html=1;exitX=0.5;exitY=0;exitDx=0;exitDy=0;fontSize=16;" edge="1" parent="1" source="cU7MSdv4xx69I2tBe95h-1" target="cU7MSdv4xx69I2tBe95h-4">
          <mxGeometry relative="1" as="geometry" />
        </mxCell>
        <mxCell id="cU7MSdv4xx69I2tBe95h-1" value="&lt;font style=&quot;font-size: 16px;&quot;&gt;&lt;b&gt;ConvBNSiLU&lt;br&gt;(512, 256, (1,1))&lt;/b&gt;&lt;br&gt;&lt;/font&gt;" style="rounded=1;whiteSpace=wrap;html=1;fillColor=#dae8fc;strokeColor=#6c8ebf;" vertex="1" parent="1">
          <mxGeometry x="210" y="1080" width="120" height="60" as="geometry" />
        </mxCell>
        <mxCell id="cU7MSdv4xx69I2tBe95h-3" value="&lt;font style=&quot;font-size: 16px;&quot;&gt;&lt;b&gt;ConvBNSiLU&lt;br&gt;(512, 256, (1,1))&lt;/b&gt;&lt;br&gt;&lt;/font&gt;" style="rounded=1;whiteSpace=wrap;html=1;fillColor=#dae8fc;strokeColor=#6c8ebf;" vertex="1" parent="1">
          <mxGeometry x="590" y="1000" width="120" height="60" as="geometry" />
        </mxCell>
        <mxCell id="cU7MSdv4xx69I2tBe95h-7" style="edgeStyle=orthogonalEdgeStyle;rounded=0;orthogonalLoop=1;jettySize=auto;html=1;exitX=0.5;exitY=0;exitDx=0;exitDy=0;entryX=0.5;entryY=1;entryDx=0;entryDy=0;fontSize=16;" edge="1" parent="1" source="cU7MSdv4xx69I2tBe95h-4" target="cU7MSdv4xx69I2tBe95h-6">
          <mxGeometry relative="1" as="geometry" />
        </mxCell>
        <mxCell id="cU7MSdv4xx69I2tBe95h-4" value="&lt;font style=&quot;font-size: 16px;&quot;&gt;&lt;b&gt;upsample&lt;br&gt;(256, 256)&lt;br&gt;&lt;/b&gt;&lt;/font&gt;" style="rounded=1;whiteSpace=wrap;html=1;fillColor=#d5e8d4;strokeColor=#82b366;" vertex="1" parent="1">
          <mxGeometry x="210" y="930" width="120" height="60" as="geometry" />
        </mxCell>
        <mxCell id="cU7MSdv4xx69I2tBe95h-5" value="" style="endArrow=classic;html=1;rounded=0;fontSize=16;entryX=0;entryY=0.5;entryDx=0;entryDy=0;" edge="1" parent="1" target="cU7MSdv4xx69I2tBe95h-6">
          <mxGeometry width="50" height="50" relative="1" as="geometry">
            <mxPoint x="90" y="860" as="sourcePoint" />
            <mxPoint x="200" y="900" as="targetPoint" />
          </mxGeometry>
        </mxCell>
        <mxCell id="cU7MSdv4xx69I2tBe95h-13" value="" style="edgeStyle=orthogonalEdgeStyle;rounded=0;orthogonalLoop=1;jettySize=auto;html=1;fontSize=16;" edge="1" parent="1" source="cU7MSdv4xx69I2tBe95h-6" target="cU7MSdv4xx69I2tBe95h-12">
          <mxGeometry relative="1" as="geometry" />
        </mxCell>
        <mxCell id="cU7MSdv4xx69I2tBe95h-6" value="&lt;b&gt;concat&lt;/b&gt;" style="ellipse;whiteSpace=wrap;html=1;aspect=fixed;fontSize=16;" vertex="1" parent="1">
          <mxGeometry x="245" y="835" width="50" height="50" as="geometry" />
        </mxCell>
        <mxCell id="cU7MSdv4xx69I2tBe95h-11" value="&lt;span style=&quot;font-weight: normal;&quot;&gt;&lt;font face=&quot;Courier New&quot;&gt;256*20*20&lt;/font&gt;&lt;/span&gt;" style="text;strokeColor=none;fillColor=none;html=1;fontSize=24;fontStyle=1;verticalAlign=middle;align=center;" vertex="1" parent="1">
          <mxGeometry x="295" y="1040" width="100" height="40" as="geometry" />
        </mxCell>
        <mxCell id="cU7MSdv4xx69I2tBe95h-15" value="" style="edgeStyle=orthogonalEdgeStyle;rounded=0;orthogonalLoop=1;jettySize=auto;html=1;fontSize=16;" edge="1" parent="1" source="cU7MSdv4xx69I2tBe95h-12" target="cU7MSdv4xx69I2tBe95h-14">
          <mxGeometry relative="1" as="geometry" />
        </mxCell>
        <mxCell id="cU7MSdv4xx69I2tBe95h-12" value="&lt;font face=&quot;Helvetica&quot; style=&quot;font-size: 16px;&quot;&gt;&lt;b&gt;C3*3&lt;br&gt;(256, 256)&lt;/b&gt;&lt;/font&gt;" style="rounded=1;whiteSpace=wrap;html=1;fontFamily=Courier New;fontSize=16;fillColor=#ffe6cc;strokeColor=#d79b00;" vertex="1" parent="1">
          <mxGeometry x="210" y="730" width="120" height="60" as="geometry" />
        </mxCell>
        <mxCell id="cU7MSdv4xx69I2tBe95h-14" value="&lt;font style=&quot;font-size: 16px;&quot;&gt;&lt;b&gt;ConvBNSiLU&lt;br&gt;(256, 128, (1,1))&lt;/b&gt;&lt;br&gt;&lt;/font&gt;" style="rounded=1;whiteSpace=wrap;html=1;fillColor=#dae8fc;strokeColor=#6c8ebf;" vertex="1" parent="1">
          <mxGeometry x="210" y="630" width="120" height="60" as="geometry" />
        </mxCell>
      </root>
    </mxGraphModel>
  </diagram>
  <diagram id="GJlDIFFBztXIJ6X1yWX1" name="第 2 页">
    <mxGraphModel dx="1103" dy="660" grid="1" gridSize="10" guides="1" tooltips="1" connect="1" arrows="1" fold="1" page="1" pageScale="1" pageWidth="1169" pageHeight="1654" math="0" shadow="0">
      <root>
        <mxCell id="0" />
        <mxCell id="1" parent="0" />
      </root>
    </mxGraphModel>
  </diagram>
</mxfile>
